<svg xmlns="http://www.w3.org/2000/svg" width="100" height="61" viewBox="0 0 100 61">
    <g fill="none" fill-rule="nonzero">
        <path fill="#E9002D" d="M16.157 18.444a.4.4 0 0 1 .293.121c.08.08.12.178.12.293v3.375c0 .115-.04.213-.12.293a.4.4 0 0 1-.293.12h-5.241c-.115 0-.173.058-.173.173v19.323c0 .115-.04.213-.12.293a.4.4 0 0 1-.293.12H6.295a.4.4 0 0 1-.293-.12.398.398 0 0 1-.12-.293V22.82c0-.115-.058-.172-.173-.172H.639a.4.4 0 0 1-.292-.12.398.398 0 0 1-.12-.294v-3.375c0-.115.04-.213.12-.293a.4.4 0 0 1 .293-.12h15.517zm9.931 24.422c-1.586 0-2.983-.322-4.19-.965a6.896 6.896 0 0 1-2.81-2.721c-.667-1.171-1-2.537-1-4.099V25.92c0-1.539.333-2.893 1-4.065a6.896 6.896 0 0 1 2.81-2.72c1.207-.644 2.604-.965 4.19-.965 1.586 0 2.989.321 4.207.964a6.87 6.87 0 0 1 2.828 2.721c.666 1.172 1 2.526 1 4.065v9.162c0 1.562-.334 2.928-1 4.099a6.87 6.87 0 0 1-2.828 2.721c-1.218.643-2.62.965-4.207.965zm0-4.168c.966 0 1.736-.316 2.31-.947.575-.632.863-1.453.863-2.463V25.78c0-1.033-.288-1.866-.863-2.497-.574-.632-1.344-.947-2.31-.947-.942 0-1.701.315-2.276.947-.574.631-.862 1.464-.862 2.497v9.507c0 1.01.288 1.831.862 2.463.575.631 1.334.947 2.276.947z"/>
        <path fill="#FFF" d="M42.236 28.012c-.083 0-.133-.041-.152-.124l-2.22-9.369-.014-.055c0-.064.041-.096.124-.096h.745c.083 0 .133.041.151.124l1.683 7.399c.01.027.02.04.035.04.014 0 .025-.013.034-.04l1.531-7.4c.019-.082.07-.123.152-.123h.69c.092 0 .142.041.151.124l1.587 7.399c.009.027.018.04.027.04.01 0 .019-.013.028-.04l1.641-7.4c.019-.082.07-.123.152-.123h.717c.092 0 .129.05.11.151l-2.151 9.37c-.019.082-.07.123-.152.123h-.703c-.083 0-.134-.041-.152-.124l-1.573-7.509c-.009-.027-.018-.04-.027-.04-.01 0-.019.013-.028.04l-1.558 7.51c-.01.082-.06.123-.152.123h-.676zm10.265.11c-.671 0-1.223-.18-1.655-.544-.432-.362-.694-.852-.786-1.467-.055-.46-.083-.992-.083-1.598 0-.606.028-1.13.083-1.57.083-.607.342-1.094.78-1.461.436-.368.99-.551 1.661-.551s1.225.183 1.662.55c.437.368.697.855.78 1.461.055.368.082.891.082 1.57 0 .699-.027 1.232-.082 1.599-.083.615-.343 1.105-.78 1.467-.437.363-.99.545-1.662.545zm0-.854c.396 0 .729-.121 1-.365.271-.243.435-.567.49-.971.037-.34.055-.808.055-1.405 0-.607-.018-1.075-.055-1.406-.046-.404-.205-.728-.476-.971-.271-.244-.61-.365-1.014-.365s-.74.121-1.007.365c-.266.243-.427.567-.483.971-.036.33-.055.8-.055 1.406 0 .606.019 1.074.055 1.405.046.404.205.728.476.971.272.244.61.365 1.014.365zm10.569-6.324c.616 0 1.1.205 1.455.613.354.41.53.972.53 1.688v4.63c0 .091-.045.137-.137.137h-.69c-.092 0-.138-.046-.138-.137v-4.492c0-.487-.121-.873-.365-1.157-.244-.285-.563-.427-.959-.427-.414 0-.747.14-1 .42-.253.28-.379.659-.379 1.136v4.52c0 .091-.046.137-.138.137h-.703c-.092 0-.138-.046-.138-.137v-4.492c0-.487-.122-.873-.366-1.157-.244-.285-.563-.427-.958-.427-.414 0-.745.14-.994.42-.248.28-.372.659-.372 1.136v4.52c0 .091-.046.137-.138.137h-.703c-.092 0-.138-.046-.138-.137v-6.696c0-.092.046-.138.138-.138h.703c.092 0 .138.046.138.138v.482c0 .018.007.03.02.034.014.005.03-.002.049-.02.184-.248.418-.432.703-.552.285-.119.589-.179.91-.179.405 0 .76.092 1.063.276.303.184.533.44.69.771.018.046.04.046.068 0 .184-.358.44-.622.766-.792a2.31 2.31 0 0 1 1.083-.255zm6.1 6.324c.349 0 .65-.09.903-.268.253-.18.434-.42.545-.724.027-.082.082-.114.165-.096l.635.124c.046.01.075.03.09.062a.158.158 0 0 1 .006.103 2.237 2.237 0 0 1-.855 1.213c-.414.294-.915.44-1.503.44-.672 0-1.219-.176-1.642-.53-.423-.354-.685-.833-.786-1.44-.037-.23-.06-.5-.069-.813-.01-.312-.014-.571-.014-.778v-.434c0-.468.019-.85.055-1.144.074-.615.33-1.11.766-1.488.437-.376.986-.564 1.648-.564.708 0 1.283.202 1.724.606.442.404.69.937.745 1.598.028.303.042.859.042 1.667 0 .092-.046.138-.138.138H67.68c-.037 0-.055.018-.055.055 0 .285.009.602.027.95.046.396.205.715.476.958.271.244.618.365 1.041.365zm-.042-5.483c-.414 0-.752.121-1.014.365-.262.243-.416.562-.462.957a20.89 20.89 0 0 0-.027.965c0 .037.018.055.055.055h2.91c.037 0 .055-.018.055-.055 0-.266-.018-.583-.055-.95-.046-.396-.2-.717-.462-.965s-.595-.372-1-.372zm6.83-.84c.644 0 1.152.204 1.525.612.372.41.558.967.558 1.674v4.644c0 .091-.046.137-.138.137H77.2c-.092 0-.138-.046-.138-.137v-4.506c0-.477-.124-.859-.372-1.143-.249-.285-.589-.427-1.021-.427-.432 0-.78.144-1.041.434-.262.289-.394.677-.394 1.164v4.478c0 .091-.045.137-.137.137h-.704c-.092 0-.138-.046-.138-.137v-6.696c0-.092.046-.138.138-.138h.704c.092 0 .137.046.137.138v.537c0 .018.007.032.021.041.014.01.03.005.048-.014.36-.532.91-.799 1.656-.799zm7.262-1.172a.743.743 0 0 1-.772-.771c0-.23.07-.416.213-.558a.756.756 0 0 1 .559-.214.742.742 0 0 1 .772.772.749.749 0 0 1-.772.772zm-.372 8.24c-.092 0-.138-.047-.138-.138v-6.696c0-.092.046-.138.138-.138h.703c.092 0 .138.046.138.138v6.696c0 .091-.046.137-.138.137h-.703zm5.603-7.069c.643 0 1.151.205 1.524.613.372.41.558.967.558 1.674v4.644c0 .091-.046.137-.138.137h-.703c-.092 0-.138-.046-.138-.137v-4.506c0-.477-.124-.859-.372-1.143-.249-.285-.589-.427-1.021-.427-.432 0-.78.144-1.041.434-.263.289-.394.677-.394 1.164v4.478c0 .091-.046.137-.137.137h-.704c-.092 0-.138-.046-.138-.137v-6.696c0-.092.046-.138.138-.138h.704c.091 0 .137.046.137.138v.537c0 .018.007.032.021.041.014.01.03.005.048-.014.359-.532.91-.799 1.656-.799zM45.629 32.72c.092 0 .138.046.138.138v.578c0 .092-.046.138-.138.138h-2.248c-.037 0-.055.018-.055.055v8.597c0 .092-.046.138-.138.138h-.704c-.092 0-.138-.046-.138-.138V33.63c0-.037-.018-.055-.055-.055h-2.165c-.092 0-.138-.046-.138-.138v-.578c0-.092.046-.138.138-.138h5.503zm3.12 8.9c.35 0 .651-.09.904-.268.253-.18.434-.42.545-.724.027-.082.082-.115.165-.096l.635.124c.046.009.076.03.09.062a.158.158 0 0 1 .006.103 2.237 2.237 0 0 1-.855 1.213c-.414.293-.915.44-1.503.44-.672 0-1.219-.176-1.642-.53-.423-.354-.685-.834-.786-1.44-.037-.23-.06-.5-.069-.813-.01-.312-.014-.571-.014-.778v-.434c0-.469.019-.85.055-1.144.074-.615.33-1.111.766-1.488.437-.376.986-.565 1.648-.565.708 0 1.283.202 1.724.607.442.404.69.937.745 1.598.028.303.042.859.042 1.667 0 .092-.046.138-.138.138H47.26c-.037 0-.055.018-.055.055 0 .285.009.601.027.95.046.395.205.715.476.958s.618.365 1.041.365zm-.041-5.483c-.414 0-.752.121-1.014.365-.262.243-.416.562-.462.957a20.89 20.89 0 0 0-.027.965c0 .036.018.055.055.055h2.91c.037 0 .055-.019.055-.055 0-.267-.018-.584-.055-.95-.046-.396-.2-.717-.462-.965s-.595-.372-1-.372zm6.458 6.337c-.662 0-1.209-.181-1.641-.544-.432-.363-.694-.852-.786-1.467a13.79 13.79 0 0 1-.083-1.598c0-.469.028-.997.083-1.585.082-.597.345-1.08.786-1.446.441-.368.988-.552 1.641-.552s1.203.175 1.649.524c.446.349.705.785.779 1.309l.041.29v.027a.121.121 0 0 1-.034.09.121.121 0 0 1-.09.034l-.703.041c-.083 0-.134-.041-.152-.124a.63.63 0 0 0-.014-.165 1.302 1.302 0 0 0-.476-.827c-.271-.23-.604-.344-1-.344-.404 0-.738.124-1 .372s-.416.57-.462.964c-.046.395-.069.863-.069 1.405 0 .552.023 1.025.07 1.42.045.404.2.725.461.964.262.239.596.358 1 .358.405 0 .743-.115 1.014-.344.271-.23.425-.51.462-.84l.014-.11c.018-.102.069-.143.152-.125l.69.055c.082.019.123.06.123.124v.055c0 .037-.009.092-.027.166-.064.542-.32.99-.766 1.343-.446.354-1 .53-1.662.53zm6.693-7.178c.644 0 1.152.205 1.524.613.373.41.559.967.559 1.674v4.643c0 .092-.046.138-.138.138H63.1c-.092 0-.138-.046-.138-.138v-4.505c0-.478-.124-.859-.372-1.143-.248-.285-.588-.428-1.02-.428-.433 0-.78.145-1.042.434-.262.29-.393.678-.393 1.165v4.477c0 .092-.046.138-.138.138h-.704c-.091 0-.137-.046-.137-.138v-9.368c0-.092.046-.138.137-.138h.704c.092 0 .138.046.138.138v3.21c0 .018.007.032.02.041.014.01.03.005.049-.014.358-.532.91-.799 1.655-.799zm6.61 0c.644 0 1.152.205 1.524.613.373.41.559.967.559 1.674v4.643c0 .092-.046.138-.138.138h-.704c-.092 0-.138-.046-.138-.138v-4.505c0-.478-.124-.859-.372-1.143-.248-.285-.589-.428-1.02-.428-.433 0-.78.145-1.042.434-.262.29-.393.678-.393 1.165v4.477c0 .092-.046.138-.138.138h-.704c-.092 0-.137-.046-.137-.138V35.53c0-.091.045-.137.137-.137h.704c.092 0 .138.046.138.137v.538c0 .018.007.032.02.041.014.01.03.005.049-.014.358-.532.91-.799 1.655-.799zm6.196 7.178c-.671 0-1.223-.181-1.655-.544-.432-.363-.694-.852-.786-1.467-.055-.46-.083-.992-.083-1.598 0-.607.028-1.13.083-1.571.083-.606.342-1.093.78-1.46.436-.368.99-.552 1.661-.552s1.225.184 1.662.552c.437.367.697.854.78 1.46.055.367.082.89.082 1.57 0 .699-.027 1.231-.082 1.599-.083.615-.343 1.104-.78 1.467s-.99.544-1.662.544zm0-.854c.396 0 .729-.122 1-.365s.435-.567.49-.971c.037-.34.055-.809.055-1.406 0-.606-.018-1.074-.055-1.405-.046-.404-.205-.728-.476-.971-.271-.244-.61-.365-1.014-.365s-.74.121-1.007.365c-.266.243-.427.567-.483.971-.036.33-.055.8-.055 1.405 0 .607.019 1.075.055 1.406.046.404.205.728.476.971.272.243.61.365 1.014.365zm4.334.744c-.092 0-.138-.046-.138-.138v-9.368c0-.092.046-.138.138-.138h.704c.092 0 .138.046.138.138v9.368c0 .092-.046.138-.138.138h-.704zm5.052.11c-.672 0-1.223-.181-1.656-.544-.432-.363-.694-.852-.786-1.467-.055-.46-.083-.992-.083-1.598 0-.607.028-1.13.083-1.571.083-.606.343-1.093.78-1.46.436-.368.99-.552 1.662-.552.67 0 1.225.184 1.662.552.436.367.696.854.779 1.46.055.367.083.89.083 1.57 0 .699-.028 1.231-.083 1.599-.083.615-.343 1.104-.78 1.467-.436.363-.99.544-1.661.544zm0-.854c.395 0 .728-.122 1-.365.27-.243.434-.567.49-.971.036-.34.054-.809.054-1.406 0-.606-.018-1.074-.055-1.405-.046-.404-.204-.728-.476-.971-.27-.244-.609-.365-1.013-.365-.405 0-.74.121-1.007.365-.267.243-.428.567-.483.971-.037.33-.055.8-.055 1.405 0 .607.018 1.075.055 1.406.046.404.205.728.476.971s.609.365 1.014.365zm7.989-6.09c0-.091.046-.137.138-.137h.703c.092 0 .138.046.138.137v6.641c0 2.076-1.135 3.064-3.407 2.963-.092-.01-.138-.06-.138-.152l.014-.62c0-.046.014-.08.042-.103a.104.104 0 0 1 .096-.021c.864.028 1.483-.13 1.855-.475.373-.345.559-.894.559-1.647v-.454a.046.046 0 0 0-.02-.042c-.015-.009-.03-.004-.05.014-.358.514-.891.772-1.6.772-.588 0-1.08-.177-1.475-.53-.395-.355-.64-.834-.731-1.44a11.912 11.912 0 0 1-.083-1.558c0-.688.032-1.23.097-1.625.073-.597.306-1.075.696-1.433.391-.358.88-.538 1.47-.538.717 0 1.26.253 1.627.758.018.019.034.025.048.02.014-.004.02-.015.02-.034v-.496zm-.042 4.712c.028-.358.042-.817.042-1.377 0-.551-.014-1.02-.042-1.406a1.482 1.482 0 0 0-.434-.95c-.253-.248-.577-.372-.972-.372-.396 0-.725.124-.987.372s-.42.565-.475.95c-.037.331-.056.8-.056 1.406 0 .459.019.918.056 1.377.045.386.202.703.468.951.267.248.598.372.994.372.395 0 .72-.124.972-.372.253-.248.398-.565.434-.95zm2.528 4.878c-.065 0-.097-.046-.097-.138v-.551c0-.092.046-.138.138-.138h.028c.321-.01.572-.064.751-.165.18-.101.331-.28.456-.538.124-.257.25-.652.379-1.184.009-.01.011-.026.007-.049l-.007-.034-2.055-6.779-.014-.041c0-.074.046-.11.138-.11h.745c.082 0 .133.041.151.124l1.504 5.497c.009.018.02.028.034.028.014 0 .026-.01.035-.028l1.503-5.497c.019-.083.07-.124.152-.124h.731c.046 0 .08.013.103.041.023.028.03.064.021.11l-2.248 7.426c-.184.616-.366 1.07-.545 1.364-.18.294-.405.499-.676.614-.271.114-.655.172-1.152.172h-.082z"/>
    </g>
</svg>
